<?xml version="1.0" standalone="no"?>
<!DOCTYPE svg PUBLIC "-//W3C//DTD SVG 20010904//EN"
 "http://www.w3.org/TR/2001/REC-SVG-20010904/DTD/svg10.dtd">
<svg version="1.0" xmlns="http://www.w3.org/2000/svg"
 width="512.000000pt" height="512.000000pt" viewBox="0 0 512.000000 512.000000"
 preserveAspectRatio="xMidYMid meet">
<metadata>
Created by potrace 1.11, written by Peter Selinger 2001-2013
</metadata>
<g transform="translate(0.000000,512.000000) scale(0.100000,-0.100000)"
fill="#000000" stroke="none">
<path d="M4098 2008 l-3 -1623 -212 -3 -213 -2 0 1280 0 1280 -425 0 -425 0
-2 -1277 -3 -1278 -1170 3 c-643 1 -1266 0 -1384 -4 -207 -6 -215 -7 -238 -30
-30 -30 -30 -75 1 -111 l24 -28 2512 0 2512 0 24 28 c31 37 31 81 -1 112 -20
21 -34 25 -85 25 l-60 0 -2 1623 -3 1622 -422 3 -423 2 -2 -1622z"/>
</g>
</svg>
